<svg xmlns="http://www.w3.org/2000/svg" width="20" height="21" viewBox="0 0 20 21">
    <path fill="#FFF" fill-rule="nonzero" d="M9.92 8h1.985V5h2.976V3h-2.976V0H9.92v3H6.944v2h2.977v3zm-3.968 9c-1.09 0-1.984.9-1.984 2s.893 2 1.984 2c1.092 0 1.985-.9 1.985-2s-.893-2-1.985-2zm9.921 0c-1.091 0-1.984.9-1.984 2s.893 2 1.984 2 1.984-.9 1.984-2-.893-2-1.984-2zm-9.752-3.25l.03-.12.893-1.63h7.39c.745 0 1.4-.41 1.737-1.03L20 3.96 18.274 3h-.01l-1.091 2-2.738 5H7.47l-.129-.27L5.12 5l-.942-2-.933-2H0v2h1.984l3.572 7.59-1.34 2.45A1.998 1.998 0 0 0 5.952 16h11.905v-2H6.37a.253.253 0 0 1-.248-.25z"/>
</svg>
